<svg width="113" height="40" viewBox="0 0 113 40" fill="none" xmlns="http://www.w3.org/2000/svg">
<mask id="mask0_0_12" style="mask-type:alpha" maskUnits="userSpaceOnUse" x="0" y="8" width="24" height="24">
<circle cx="12" cy="20" r="12" fill="#C4C4C4"/>
</mask>
<g mask="url(#mask0_0_12)">
<circle cx="6.29253" cy="5.86896" r="9.9559" transform="rotate(-22 6.29253 5.86896)" fill="#0A112F"/>
<circle cx="17.7105" cy="34.1308" r="9.9559" transform="rotate(-22 17.7105 34.1308)" fill="#0A112F"/>
<circle cx="-2.12935" cy="25.7093" r="9.9559" transform="rotate(-22 -2.12935 25.7093)" fill="#0A112F"/>
<circle cx="25.8707" cy="13.6435" r="9.9559" transform="rotate(-22 25.8707 13.6435)" fill="#0A112F"/>
</g>
<path d="M40.88 22.952C44.384 22.952 46.688 20.576 46.688 17.192C46.688 13.76 44.408 11.456 40.88 11.456H33.944V29H37.016V22.952H40.88ZM40.28 14.192C42.32 14.192 43.472 15.248 43.472 17.168C43.472 19.088 42.344 20.216 40.232 20.216H37.016V14.192H40.28ZM51.4194 29.312C53.2674 29.312 54.8754 28.472 55.3794 27.248L55.5954 29H58.1634V21.8C58.1634 18.512 56.1954 16.784 53.0034 16.784C49.7874 16.784 47.6754 18.464 47.6754 21.032H50.1714C50.1714 19.784 51.1314 19.064 52.8594 19.064C54.3474 19.064 55.3074 19.712 55.3074 21.32V21.584L51.7554 21.848C48.9474 22.064 47.3634 23.432 47.3634 25.616C47.3634 27.848 48.8994 29.312 51.4194 29.312ZM52.3794 27.104C51.0594 27.104 50.3394 26.576 50.3394 25.496C50.3394 24.536 51.0354 23.936 52.8594 23.768L55.3314 23.576V24.2C55.3314 26.024 54.1794 27.104 52.3794 27.104ZM59.1997 34.496C59.8477 34.664 60.5677 34.76 61.3837 34.76C63.3277 34.76 64.5757 33.848 65.4637 31.64L71.2717 17.144H68.2477L65.0317 25.784L61.9837 17.144H58.8877L63.6637 29.504L63.3277 30.392C62.8237 31.784 62.1037 32.048 60.9517 32.048H59.1997V34.496ZM79.8948 17.096C79.4148 16.976 79.0068 16.928 78.5988 16.928C77.0148 16.928 75.8868 17.72 75.3828 18.896L75.2148 17.168H72.4548V29H75.3828V23.24C75.3828 20.936 76.7028 19.808 78.8148 19.808H79.8948V17.096ZM80.3023 23.048C80.3023 26.744 82.9663 29.288 86.6383 29.288C90.3103 29.288 92.9743 26.744 92.9743 23.048C92.9743 19.352 90.3103 16.808 86.6383 16.808C82.9663 16.808 80.3023 19.352 80.3023 23.048ZM83.2303 23.048C83.2303 20.888 84.6223 19.424 86.6383 19.424C88.6543 19.424 90.0463 20.888 90.0463 23.048C90.0463 25.208 88.6543 26.672 86.6383 26.672C84.6223 26.672 83.2303 25.208 83.2303 23.048ZM97.7671 29V11.144H94.8631V29H97.7671ZM105.663 29.312C108.759 29.312 110.919 27.752 111.423 25.16H108.711C108.375 26.288 107.319 26.912 105.711 26.912C103.767 26.912 102.663 25.856 102.447 23.768L111.375 23.744V22.856C111.375 19.16 109.119 16.784 105.567 16.784C102.087 16.784 99.6626 19.352 99.6626 23.072C99.6626 26.744 102.135 29.312 105.663 29.312ZM105.591 19.184C107.343 19.184 108.471 20.264 108.471 21.896H102.519C102.807 20.12 103.863 19.184 105.591 19.184Z" fill="#0A112F"/>
</svg>
