<svg width="880" height="64" viewBox="0 0 880 64" fill="none" xmlns="http://www.w3.org/2000/svg">
<g clip-path="url(#clip0_62_4658)">
<path d="M23.1174 19.3961L11.5587 26.774L23.1174 34.1519L11.5587 41.5298L0 34.0904L11.5587 26.7125L0 19.3961L11.5587 12.0182L23.1174 19.3961ZM11.4972 43.8661L23.0559 36.4882L34.6146 43.8661L23.0559 51.244L11.4972 43.8661ZM23.1174 34.0904L34.6761 26.7125L23.1174 19.3961L34.6146 12.0182L46.1733 19.3961L34.6146 26.774L46.1733 34.1519L34.6146 41.5298L23.1174 34.0904Z" fill="#0A112F"/>
<path d="M55.2109 19.3961H64.5563C70.5201 19.3961 75.4387 22.8392 75.4387 30.7089V32.3689C75.4387 40.3002 70.8275 43.8662 64.7407 43.8662H55.2109V19.3961ZM60.4369 23.8229V39.3779H64.4333C67.8148 39.3779 70.0897 37.1646 70.0897 32.246V30.9549C70.0897 26.0363 67.6919 23.8229 64.2489 23.8229H60.4369ZM78.2054 24.0688H82.3862L83.0625 28.68C83.8618 25.5444 85.8907 23.8844 89.5796 23.8844H90.8708V29.1719H88.7189C84.4766 29.1719 83.4314 30.6474 83.4314 34.8282V43.9277H78.2669V24.0688H78.2054ZM91.916 34.3979V33.8445C91.916 27.2044 96.1583 23.577 101.938 23.577C107.84 23.577 111.959 27.2044 111.959 33.8445V34.3979C111.959 40.915 107.963 44.4195 101.938 44.4195C95.5434 44.358 91.916 40.915 91.916 34.3979ZM106.672 34.3364V33.8445C106.672 30.1556 104.827 27.9422 101.876 27.9422C98.9865 27.9422 97.0805 29.9711 97.0805 33.8445V34.3364C97.0805 37.9024 98.925 39.9313 101.876 39.9313C104.827 39.8698 106.672 37.9024 106.672 34.3364ZM114.664 24.0688H118.968L119.46 27.8192C120.505 25.2985 122.719 23.577 125.977 23.577C131.019 23.577 134.339 27.2044 134.339 33.906V34.4594C134.339 40.9765 130.65 44.4195 125.977 44.4195C122.842 44.4195 120.69 43.0054 119.645 40.7306V50.7522H114.603L114.664 24.0688ZM129.113 34.3364V33.906C129.113 29.9711 127.084 28.0037 124.379 28.0037C121.489 28.0037 119.583 30.2171 119.583 33.906V34.2749C119.583 37.7794 121.428 39.9928 124.317 39.9928C127.268 39.9313 129.113 38.0253 129.113 34.3364ZM141.963 40.2387L141.532 43.8662H137.106V17.4287H142.147V27.5733C143.254 24.9911 145.467 23.577 148.603 23.577C153.337 23.6384 156.841 26.897 156.841 33.4756V34.0905C156.841 40.6691 153.521 44.4195 148.48 44.4195C145.16 44.358 143.008 42.821 141.963 40.2387ZM151.554 34.0905V33.5986C151.554 29.9711 149.587 27.9422 146.82 27.9422C143.992 27.9422 142.024 30.2171 142.024 33.6601V34.0905C142.024 37.7794 143.93 39.9313 146.758 39.9313C149.771 39.9313 151.554 38.0253 151.554 34.0905ZM159.055 34.3979V33.8445C159.055 27.2044 163.297 23.577 169.076 23.577C174.979 23.577 179.098 27.2044 179.098 33.8445V34.3979C179.098 40.915 175.04 44.4195 169.076 44.4195C162.682 44.358 159.055 40.915 159.055 34.3979ZM173.872 34.3364V33.8445C173.872 30.1556 172.028 27.9422 169.076 27.9422C166.187 27.9422 164.281 29.9711 164.281 33.8445V34.3364C164.281 37.9024 166.125 39.9313 169.076 39.9313C172.028 39.8698 173.872 37.9024 173.872 34.3364ZM185.861 33.5986L178.914 24.0688H184.877L188.874 30.0326L192.932 24.0688H198.834L191.763 33.5371L199.203 43.8662H193.362L188.812 37.2875L184.386 43.8662H178.299L185.861 33.5986Z" fill="#0A112F"/>
</g>
<g clip-path="url(#clip1_62_4658)">
<path d="M247.859 16.0285C252.949 16.0351 258.041 15.9588 263.129 16.0753C267.05 16.1651 270.123 18.8257 270.784 22.4598C271.533 26.5736 269.396 30.0861 266.099 31.0287C266.015 31.0526 265.947 31.1302 265.835 31.2087C268.977 32.1072 270.853 34.1847 271.381 37.2972C272.252 42.4326 269.416 46.6523 264.058 47.2494C262.87 47.3815 261.663 47.3782 260.465 47.3844C256.263 47.4067 252.061 47.406 247.86 47.4141L247.859 16.0285ZM254.626 41.4221C254.713 41.452 254.801 41.508 254.887 41.508C256.997 41.5115 259.109 41.5862 261.214 41.4866C263.391 41.3833 264.686 40.0466 264.744 38.0766C264.802 36.0973 263.606 34.6697 261.473 34.414C260.125 34.2523 258.748 34.3265 257.384 34.3073C256.48 34.2948 255.576 34.305 254.626 34.305V41.4221ZM254.58 28.465C256.546 28.465 258.413 28.4684 260.279 28.4622C260.639 28.4609 261.006 28.4639 261.355 28.3936C262.674 28.1293 263.666 27.4542 264.012 26.0819C264.562 23.894 263.166 22.0038 260.899 21.8917C259.846 21.8397 258.787 21.8773 257.731 21.8763C256.707 21.875 255.683 21.876 254.626 21.876C254.605 22.1026 254.582 22.2408 254.581 22.379C254.579 24.3665 254.58 26.354 254.58 28.465ZM369.225 47.9898C368.429 47.8421 367.625 47.7288 366.839 47.5405C360.685 46.0672 357.55 40.7766 358.087 34.9307C358.538 30.0359 361.008 26.4574 365.714 24.8007C372.283 22.4877 379.901 25.6106 381.025 34.3413C381.174 35.4948 381.167 36.6683 381.237 37.9361H364.272C364.665 40.087 365.751 41.596 367.645 42.398C370.722 43.7015 373.605 43.0518 376.322 41.3046C376.483 41.2013 376.631 41.0787 376.787 40.9677C376.803 40.9567 376.833 40.9662 376.942 40.9662C377.773 42.1887 378.632 43.4512 379.597 44.8699C378.722 45.4151 377.914 46.0061 377.032 46.4486C375.41 47.2628 373.666 47.6944 371.854 47.8451C371.647 47.8623 371.446 47.94 371.243 47.9897L369.225 47.9898ZM375.382 33.8047C375.5 30.986 372.811 28.8333 369.406 28.9675C366.575 29.0791 364.057 31.4743 364.36 33.8047H375.382ZM393.585 47.9898C392.606 47.793 391.611 47.6539 390.65 47.3893C386.064 46.1256 382.9 42.2516 382.484 37.5169C382.091 33.0508 383.387 29.2658 386.976 26.4483C392.416 22.1789 403.105 23.1474 405.229 33.249C405.381 33.9728 405.47 34.7158 405.516 35.4544C405.565 36.2386 405.527 37.0285 405.527 37.9357H388.673C388.819 39.1984 389.31 40.2137 390.125 41.0535C391.989 42.9752 394.315 43.3369 396.829 42.8963C398.431 42.6154 399.909 42.0077 401.24 40.8689L403.953 44.8416C403.247 45.3137 402.607 45.813 401.904 46.1971C400.157 47.1519 398.266 47.6558 396.286 47.8408C396.055 47.8623 395.83 47.9387 395.603 47.9895C394.93 47.9898 394.258 47.9898 393.585 47.9898ZM388.713 33.8007H399.746C399.888 31.0685 397.262 28.8983 393.963 28.9626C391.036 29.0195 388.502 31.3319 388.713 33.8007ZM282.021 47.9898C281.3 47.8424 280.574 47.7147 279.858 47.5442C275.426 46.4892 272.808 43.1756 272.804 38.6207C272.801 34.2547 272.804 29.8885 272.804 25.5224V24.74H278.794V25.5737C278.794 29.7 278.806 33.8262 278.789 37.9524C278.781 39.824 279.354 41.409 281.129 42.2234C283.054 43.1061 285.025 43.0738 286.805 41.8073C288.109 40.88 288.477 39.4605 288.48 37.9352C288.488 33.833 288.483 29.7307 288.483 25.6285V24.7264H294.409L294.409 25.5351C294.409 29.8533 294.411 34.1714 294.408 38.4897C294.405 43.7004 291.158 47.2822 285.954 47.8283C285.698 47.8554 285.446 47.9344 285.192 47.9892C284.135 47.9898 283.078 47.9898 282.021 47.9898ZM338.587 47.342V16.0496H360.377V19.0851C360.377 19.7569 360.332 20.4325 360.39 21.0994C360.447 21.7634 360.181 21.8922 359.569 21.8888C355.269 21.8643 350.969 21.8758 346.67 21.8758H345.31V28.465H346.121C349.364 28.465 352.607 28.4836 355.85 28.4498C356.505 28.443 356.658 28.6511 356.643 29.2694C356.603 30.9181 356.63 32.5685 356.63 34.2999H345.261V47.342H338.587ZM407.045 47.3297V46.5065C407.045 39.5035 407.045 32.501 407.045 25.498C407.045 24.5787 407.046 24.5707 407.996 24.5794C411.284 24.6097 414.585 24.4697 417.856 24.7227C422.517 25.0829 426.165 27.1795 427.891 31.7748C429.646 36.4443 428.309 41.7735 424.743 44.6931C422.642 46.4131 420.17 47.26 417.507 47.3559C414.126 47.4782 410.737 47.3945 407.352 47.397C407.283 47.3971 407.215 47.368 407.045 47.3297ZM412.758 42.527C413.906 42.527 414.982 42.5273 416.057 42.527C419.925 42.5257 422.361 40.3482 422.795 36.5035C423.106 33.743 421.611 30.9973 419.23 30.0225C417.133 29.1642 414.942 29.6205 412.759 29.4992C412.758 33.8829 412.758 38.145 412.758 42.527ZM306.485 29.8513H296.335V24.7165H314.685C314.685 25.6853 314.636 26.6588 314.699 27.6254C314.757 28.5164 314.486 29.2048 313.923 29.9043C310.871 33.6976 307.867 37.5291 304.848 41.3482C304.686 41.5531 304.532 41.7641 304.279 42.097H314.807V47.3304H296.28C296.28 45.901 296.259 44.4721 296.299 43.0447C296.307 42.7997 296.553 42.5443 296.727 42.3236C299.824 38.383 302.928 34.4474 306.029 30.5091C306.158 30.3449 306.268 30.1655 306.485 29.8513ZM316.447 29.8571C316.447 28.2367 316.445 26.7514 316.449 25.2659C316.449 25.102 316.476 24.9382 316.495 24.7257H334.789C334.789 26.1062 334.804 27.4646 334.773 28.8219C334.768 29.0265 334.566 29.2421 334.421 29.4256C331.271 33.4182 328.116 37.4067 324.964 41.3974C324.808 41.5945 324.67 41.805 324.427 42.1422H325.345C328.323 42.1422 331.301 42.1547 334.278 42.1314C334.832 42.1272 335.038 42.263 335.022 42.8518C334.982 44.3331 335.009 45.8165 335.009 47.3435H316.464C316.464 45.8643 316.453 44.4094 316.479 42.9555C316.483 42.7732 316.674 42.5829 316.805 42.417C319.829 38.5702 322.858 34.7264 325.885 30.8816C326.117 30.5877 326.343 30.29 326.677 29.8569L316.447 29.8571Z" fill="#0A112F"/>
</g>
<g clip-path="url(#clip2_62_4658)">
<path d="M496.818 24.4493V47.9971H477.315L496.818 24.4493ZM496.818 16.0018C496.818 21.3833 492.458 25.7425 487.077 25.7425C481.696 25.7425 477.315 21.3833 477.315 16.0018H496.818ZM500.03 47.998C500.03 42.6166 504.389 38.2574 509.771 38.2574C515.152 38.2574 519.511 42.6166 519.511 47.998H500.03ZM500.03 39.5505V16.0018H519.532L500.03 39.5505Z" fill="#0A112F"/>
</g>
<g clip-path="url(#clip3_62_4658)">
<path d="M638.644 43.6383C640.865 43.6918 643.005 42.8624 644.61 41.3106L647.553 44.4944C645.6 46.501 642.898 47.9993 638.698 47.9993C631.474 47.9993 626.819 43.2102 626.819 36.7355C626.819 30.3144 631.715 25.4718 638.029 25.4718C645.199 25.4718 649.239 30.9298 648.891 38.4746H631.982C632.571 41.6316 634.791 43.6383 638.644 43.6383ZM643.781 34.8895C643.326 31.9732 641.587 29.8061 638.082 29.8061C634.818 29.8061 632.571 31.6521 631.982 34.8895H643.781ZM527.532 43.3975L540.561 30.1539H527.826V26.0069H546.581V30.2609L533.578 43.4777H546.768V47.6247H527.532V43.3975ZM561.376 43.6383C563.597 43.6918 565.737 42.8624 567.343 41.3106L570.286 44.4944C568.333 46.501 565.63 47.9993 561.43 47.9993C554.233 47.9993 549.551 43.2102 549.551 36.7355C549.551 30.3144 554.447 25.4718 560.761 25.4718C567.931 25.4718 571.971 30.9298 571.624 38.4746H554.715C555.33 41.6316 557.524 43.6383 561.376 43.6383ZM566.54 34.8895C566.085 31.9732 564.346 29.8061 560.841 29.8061C557.577 29.8061 555.33 31.6521 554.741 34.8895H566.54ZM599.77 36.7623C599.77 29.8328 604.933 25.5253 610.632 25.5253C613.495 25.5253 616.224 26.7828 617.829 28.7626V16.0006H622.431V47.5712H617.829V44.5747C616.17 46.6883 613.441 47.9993 610.578 47.9993C605.067 47.9993 599.77 43.6383 599.77 36.7623ZM618.097 36.7088C618.097 32.8561 615.18 29.699 611.247 29.699C607.395 29.699 604.398 32.7758 604.398 36.7088C604.398 40.6417 607.395 43.7453 611.247 43.7453C615.18 43.772 618.097 40.615 618.097 36.7088ZM651.888 42.9694L656.061 40.8022C657.185 42.8089 659.326 44.0128 661.626 43.9593C664.222 43.9593 665.586 42.6216 665.586 41.0966C665.586 39.3575 663.071 38.9829 660.342 38.4211C656.65 37.6452 652.824 36.4412 652.824 31.9732C652.824 28.5486 656.088 25.3915 661.198 25.445C665.238 25.445 668.235 27.0503 669.92 29.6455L666.041 31.7859C665.051 30.2609 663.339 29.3245 661.172 29.3245C658.683 29.3245 657.426 30.5284 657.426 31.9197C657.426 33.4715 659.433 33.8995 662.563 34.5952C666.121 35.371 670.161 36.5482 670.161 41.043C670.161 44.0396 667.566 48.0528 661.386 47.9993C656.891 47.9993 653.707 46.18 651.888 42.9694ZM682.656 37.9662L679.017 41.9527V47.5712H674.415V16.0006H679.017V36.6553L688.783 25.9534H694.374L685.92 35.2105L694.615 47.5712H689.398L682.656 37.9662ZM585.857 25.4985C580.372 25.4985 575.797 29.0569 575.797 34.9162V47.5712H580.506V35.5316C580.506 31.9732 582.539 29.8596 586.018 29.8596C589.496 29.8596 591.235 31.9732 591.235 35.5316V47.5712H595.917V34.943C595.917 29.0569 591.342 25.4985 585.857 25.4985Z" fill="#0A112F"/>
<path d="M693.09 23.1442C693.732 22.5021 694.802 22.5021 695.444 23.1442C696.087 23.7863 696.087 24.8565 695.444 25.4986C694.802 26.1407 693.732 26.1407 693.09 25.4986C692.421 24.8565 692.421 23.8131 693.09 23.1442ZM695.15 25.231C695.632 24.7227 695.605 23.9201 695.123 23.4385C694.615 22.9569 693.812 22.9837 693.331 23.4652C692.849 23.9736 692.849 24.7495 693.358 25.231C693.866 25.7394 694.669 25.7126 695.15 25.231ZM694.401 23.2512L694.909 23.7595C695.23 24.0806 695.23 24.4552 695.016 24.6692C694.856 24.8565 694.588 24.91 694.374 24.803L694.214 25.4451L693.866 25.0973L694.107 24.2144L694.24 24.3481C694.321 24.4552 694.508 24.4819 694.615 24.4017L694.642 24.3749C694.749 24.2679 694.722 24.0806 694.615 24.0003L694.588 23.9736L694.401 23.7863L693.465 24.7227L693.17 24.4284L694.401 23.2512Z" fill="#0A112F"/>
</g>
<g clip-path="url(#clip4_62_4658)">
<path d="M801.874 25.0625C794.438 25.0625 788.405 31.1118 788.405 38.5312C788.405 45.9507 794.455 51.9999 801.874 51.9999C809.293 51.9999 815.343 45.9507 815.343 38.5312C815.343 31.1118 809.31 25.0625 801.874 25.0625ZM801.874 45.6257C797.969 45.6257 794.79 42.4467 794.79 38.542C794.79 34.6374 797.969 31.4584 801.874 31.4584C805.779 31.4584 808.958 34.6374 808.958 38.542C808.958 42.4467 805.779 45.6257 801.874 45.6257Z" fill="#0A112F"/>
<path d="M846.678 20.3997C848.996 20.3997 850.88 18.5204 850.88 16.1971C850.88 13.8738 848.996 12 846.678 12C844.36 12 842.475 13.8792 842.475 16.2025C842.475 18.5259 844.36 20.3997 846.678 20.3997Z" fill="#0A112F"/>
<path d="M774.373 25.0734C774.021 25.0463 773.686 25.03 773.339 25.03C770.09 25.03 767.008 26.3623 764.798 28.7127C762.589 26.3731 759.518 25.03 756.301 25.03C749.857 25.0354 744.609 30.267 744.609 36.7116V51.453H750.907V36.8903C750.907 34.215 753.106 31.7509 755.695 31.4855C755.879 31.4692 756.058 31.4584 756.225 31.4584C759.139 31.4584 761.517 33.8359 761.533 36.7495V51.4476H767.972V36.8632C767.972 34.2041 770.155 31.74 772.759 31.4747C772.944 31.4584 773.122 31.4476 773.29 31.4476C776.204 31.4476 778.598 33.8142 778.608 36.7116V51.453H785.048V36.8903C785.048 33.9388 783.954 31.0901 781.982 28.8968C780.016 26.6872 777.314 25.3279 774.373 25.0734Z" fill="#0A112F"/>
<path d="M825.253 12.6282H818.814V51.4801H825.253V12.6282ZM837.579 12.6282H831.14V51.4801H837.579V12.6282ZM849.9 25.707H843.461V51.4692H849.9V25.707Z" fill="#0A112F"/>
<path d="M880 37.9302C880 34.5129 878.668 31.296 876.263 28.8427C873.843 26.3949 870.647 25.0355 867.246 25.0355H867.079C863.553 25.0788 860.217 26.4761 857.726 28.9835C855.235 31.491 853.832 34.8054 853.794 38.3472C853.751 41.9595 855.137 45.3767 857.699 47.9654C860.26 50.5541 863.65 51.9838 867.263 51.9838H867.279C872.012 51.9838 876.448 49.4493 878.874 45.3767L879.183 44.8568L873.864 42.2411L873.599 42.6743C872.256 44.8731 869.949 46.1728 867.387 46.1728C864.111 46.1728 861.284 43.9903 860.412 40.8817H880V37.9302ZM866.992 30.8844C869.933 30.8844 872.565 32.8178 873.491 35.5582H860.509C861.419 32.8178 864.051 30.8844 866.992 30.8844Z" fill="#0A112F"/>
</g>
<defs>
<clipPath id="clip0_62_4658">
<rect width="199.203" height="40" fill="white" transform="translate(0 12)"/>
</clipPath>
<clipPath id="clip1_62_4658">
<rect width="180.8" height="32" fill="white" transform="translate(247.859 16)"/>
</clipPath>
<clipPath id="clip2_62_4658">
<rect width="42.2164" height="32" fill="white" transform="translate(477.315 16)"/>
</clipPath>
<clipPath id="clip3_62_4658">
<rect width="168.421" height="32" fill="white" transform="translate(527.532 16)"/>
</clipPath>
<clipPath id="clip4_62_4658">
<rect width="135.391" height="40" fill="white" transform="translate(744.609 12)"/>
</clipPath>
</defs>
</svg>
